<mxfile host="app.diagrams.net" agent="Mozilla/5.0 (Windows NT 10.0; Win64; x64) AppleWebKit/537.36 (KHTML, like Gecko) Chrome/129.0.0.0 Safari/537.36" version="24.8.4" pages="3">
  <diagram id="lCpECebl7p-WNkhUfbFM" name="第 1 页">
    <mxGraphModel dx="1022" dy="436" grid="1" gridSize="10" guides="1" tooltips="1" connect="1" arrows="1" fold="1" page="1" pageScale="1" pageWidth="827" pageHeight="1169" math="0" shadow="0">
      <root>
        <mxCell id="0" />
        <mxCell id="1" parent="0" />
        <mxCell id="my8HkVu22L4W3eeuBW5z-4" style="edgeStyle=orthogonalEdgeStyle;rounded=0;orthogonalLoop=1;jettySize=auto;html=1;entryX=0.5;entryY=0;entryDx=0;entryDy=0;" edge="1" parent="1" source="my8HkVu22L4W3eeuBW5z-2" target="my8HkVu22L4W3eeuBW5z-3">
          <mxGeometry relative="1" as="geometry" />
        </mxCell>
        <mxCell id="my8HkVu22L4W3eeuBW5z-2" value="原生指标" style="rounded=0;whiteSpace=wrap;html=1;" vertex="1" parent="1">
          <mxGeometry x="310" y="130" width="120" height="60" as="geometry" />
        </mxCell>
        <mxCell id="my8HkVu22L4W3eeuBW5z-6" value="" style="edgeStyle=orthogonalEdgeStyle;rounded=0;orthogonalLoop=1;jettySize=auto;html=1;" edge="1" parent="1" source="my8HkVu22L4W3eeuBW5z-3" target="my8HkVu22L4W3eeuBW5z-5">
          <mxGeometry relative="1" as="geometry" />
        </mxCell>
        <mxCell id="my8HkVu22L4W3eeuBW5z-3" value="派生指标" style="rounded=0;whiteSpace=wrap;html=1;" vertex="1" parent="1">
          <mxGeometry x="310" y="250" width="120" height="60" as="geometry" />
        </mxCell>
        <mxCell id="my8HkVu22L4W3eeuBW5z-5" value="指标路径" style="rounded=0;whiteSpace=wrap;html=1;" vertex="1" parent="1">
          <mxGeometry x="310" y="360" width="120" height="60" as="geometry" />
        </mxCell>
      </root>
    </mxGraphModel>
  </diagram>
  <diagram id="00E_q2rnQK1i6W1a9DlZ" name="活动流程">
    <mxGraphModel dx="794" dy="420" grid="1" gridSize="10" guides="1" tooltips="1" connect="1" arrows="1" fold="1" page="1" pageScale="1" pageWidth="827" pageHeight="1169" math="0" shadow="0">
      <root>
        <mxCell id="0" />
        <mxCell id="1" parent="0" />
        <mxCell id="ciHioVF_uwQEzItr6yAp-6" value="" style="edgeStyle=orthogonalEdgeStyle;rounded=0;orthogonalLoop=1;jettySize=auto;html=1;fillColor=#d5e8d4;strokeColor=#82b366;" parent="1" source="ciHioVF_uwQEzItr6yAp-1" target="ciHioVF_uwQEzItr6yAp-5" edge="1">
          <mxGeometry relative="1" as="geometry" />
        </mxCell>
        <mxCell id="ciHioVF_uwQEzItr6yAp-1" value="抽奖移动端-抽奖首页信息" style="rounded=1;whiteSpace=wrap;html=1;fillColor=#d5e8d4;strokeColor=#82b366;" parent="1" vertex="1">
          <mxGeometry x="300" y="190" width="120" height="60" as="geometry" />
        </mxCell>
        <mxCell id="ciHioVF_uwQEzItr6yAp-4" style="edgeStyle=orthogonalEdgeStyle;rounded=0;orthogonalLoop=1;jettySize=auto;html=1;entryX=0;entryY=0.5;entryDx=0;entryDy=0;fillColor=#d5e8d4;strokeColor=#82b366;" parent="1" source="ciHioVF_uwQEzItr6yAp-2" target="ciHioVF_uwQEzItr6yAp-1" edge="1">
          <mxGeometry relative="1" as="geometry" />
        </mxCell>
        <mxCell id="ciHioVF_uwQEzItr6yAp-2" value="进入营销活动页面" style="strokeWidth=2;html=1;shape=mxgraph.flowchart.start_2;whiteSpace=wrap;fillColor=#d5e8d4;strokeColor=#82b366;" parent="1" vertex="1">
          <mxGeometry x="130" y="190" width="100" height="60" as="geometry" />
        </mxCell>
        <mxCell id="ciHioVF_uwQEzItr6yAp-8" value="" style="edgeStyle=orthogonalEdgeStyle;rounded=0;orthogonalLoop=1;jettySize=auto;html=1;entryX=0;entryY=0.5;entryDx=0;entryDy=0;fillColor=#d5e8d4;strokeColor=#82b366;" parent="1" source="ciHioVF_uwQEzItr6yAp-5" target="ciHioVF_uwQEzItr6yAp-7" edge="1">
          <mxGeometry relative="1" as="geometry" />
        </mxCell>
        <mxCell id="ciHioVF_uwQEzItr6yAp-30" value="用户点击抽奖" style="edgeLabel;html=1;align=center;verticalAlign=middle;resizable=0;points=[];" parent="ciHioVF_uwQEzItr6yAp-8" vertex="1" connectable="0">
          <mxGeometry x="-0.2326" y="-1" relative="1" as="geometry">
            <mxPoint x="11" y="-1" as="offset" />
          </mxGeometry>
        </mxCell>
        <mxCell id="ciHioVF_uwQEzItr6yAp-5" value="获取滑块验证参数" style="rounded=1;whiteSpace=wrap;html=1;fillColor=#d5e8d4;strokeColor=#82b366;" parent="1" vertex="1">
          <mxGeometry x="480" y="190" width="120" height="60" as="geometry" />
        </mxCell>
        <mxCell id="ciHioVF_uwQEzItr6yAp-7" value="参与活动（抽奖）" style="rounded=1;whiteSpace=wrap;html=1;fillColor=#d5e8d4;strokeColor=#82b366;" parent="1" vertex="1">
          <mxGeometry x="730" y="190" width="120" height="60" as="geometry" />
        </mxCell>
        <mxCell id="ciHioVF_uwQEzItr6yAp-15" value="" style="edgeStyle=orthogonalEdgeStyle;rounded=0;orthogonalLoop=1;jettySize=auto;html=1;fillColor=#dae8fc;strokeColor=#6c8ebf;" parent="1" source="ciHioVF_uwQEzItr6yAp-9" target="ciHioVF_uwQEzItr6yAp-14" edge="1">
          <mxGeometry relative="1" as="geometry" />
        </mxCell>
        <mxCell id="ciHioVF_uwQEzItr6yAp-9" value="用户反馈信息保存" style="rounded=1;whiteSpace=wrap;html=1;fillColor=#dae8fc;strokeColor=#6c8ebf;" parent="1" vertex="1">
          <mxGeometry x="640" y="380" width="90" height="60" as="geometry" />
        </mxCell>
        <mxCell id="ciHioVF_uwQEzItr6yAp-13" value="" style="edgeStyle=orthogonalEdgeStyle;rounded=0;orthogonalLoop=1;jettySize=auto;html=1;fillColor=#dae8fc;strokeColor=#6c8ebf;" parent="1" source="ciHioVF_uwQEzItr6yAp-11" target="ciHioVF_uwQEzItr6yAp-9" edge="1">
          <mxGeometry relative="1" as="geometry" />
        </mxCell>
        <mxCell id="ciHioVF_uwQEzItr6yAp-11" value="获取手机验证码" style="rounded=1;whiteSpace=wrap;html=1;fillColor=#dae8fc;strokeColor=#6c8ebf;" parent="1" vertex="1">
          <mxGeometry x="470" y="380" width="100" height="60" as="geometry" />
        </mxCell>
        <mxCell id="ciHioVF_uwQEzItr6yAp-26" value="" style="edgeStyle=orthogonalEdgeStyle;rounded=0;orthogonalLoop=1;jettySize=auto;html=1;fillColor=#dae8fc;strokeColor=#6c8ebf;" parent="1" source="ciHioVF_uwQEzItr6yAp-14" target="ciHioVF_uwQEzItr6yAp-25" edge="1">
          <mxGeometry relative="1" as="geometry" />
        </mxCell>
        <mxCell id="ciHioVF_uwQEzItr6yAp-14" value="立即领取" style="rounded=1;whiteSpace=wrap;html=1;fillColor=#dae8fc;strokeColor=#6c8ebf;" parent="1" vertex="1">
          <mxGeometry x="790" y="380" width="80" height="60" as="geometry" />
        </mxCell>
        <mxCell id="ciHioVF_uwQEzItr6yAp-23" value="" style="edgeStyle=orthogonalEdgeStyle;rounded=0;orthogonalLoop=1;jettySize=auto;html=1;fillColor=#dae8fc;strokeColor=#6c8ebf;" parent="1" source="ciHioVF_uwQEzItr6yAp-16" target="ciHioVF_uwQEzItr6yAp-20" edge="1">
          <mxGeometry relative="1" as="geometry" />
        </mxCell>
        <mxCell id="ciHioVF_uwQEzItr6yAp-16" value="进入待领取奖品列表" style="strokeWidth=2;html=1;shape=mxgraph.flowchart.start_2;whiteSpace=wrap;fillColor=#dae8fc;strokeColor=#6c8ebf;" parent="1" vertex="1">
          <mxGeometry x="140" y="370" width="100" height="60" as="geometry" />
        </mxCell>
        <mxCell id="ciHioVF_uwQEzItr6yAp-18" value="参与活动" style="shape=umlFrame;whiteSpace=wrap;html=1;pointerEvents=0;fillColor=#d5e8d4;strokeColor=#82b366;" parent="1" vertex="1">
          <mxGeometry x="120" y="145" width="870" height="150" as="geometry" />
        </mxCell>
        <mxCell id="ciHioVF_uwQEzItr6yAp-19" value="领取奖品" style="shape=umlFrame;whiteSpace=wrap;html=1;pointerEvents=0;fillColor=#dae8fc;strokeColor=#6c8ebf;" parent="1" vertex="1">
          <mxGeometry x="120" y="320" width="960" height="160" as="geometry" />
        </mxCell>
        <mxCell id="ciHioVF_uwQEzItr6yAp-32" value="" style="edgeStyle=orthogonalEdgeStyle;rounded=0;orthogonalLoop=1;jettySize=auto;html=1;" parent="1" source="ciHioVF_uwQEzItr6yAp-20" target="ciHioVF_uwQEzItr6yAp-31" edge="1">
          <mxGeometry relative="1" as="geometry" />
        </mxCell>
        <mxCell id="ciHioVF_uwQEzItr6yAp-20" value="获取指定用户未领取奖品" style="rounded=1;whiteSpace=wrap;html=1;fillColor=#dae8fc;strokeColor=#6c8ebf;" parent="1" vertex="1">
          <mxGeometry x="290" y="370" width="120" height="60" as="geometry" />
        </mxCell>
        <mxCell id="ciHioVF_uwQEzItr6yAp-25" value="个人核销列表" style="rounded=1;whiteSpace=wrap;html=1;fillColor=#dae8fc;strokeColor=#6c8ebf;" parent="1" vertex="1">
          <mxGeometry x="944" y="380" width="80" height="60" as="geometry" />
        </mxCell>
        <mxCell id="ciHioVF_uwQEzItr6yAp-31" value="留资界面" style="shape=umlFrame;whiteSpace=wrap;html=1;pointerEvents=0;fillColor=#e1d5e7;strokeColor=#9673a6;" parent="1" vertex="1">
          <mxGeometry x="450" y="345" width="430" height="110" as="geometry" />
        </mxCell>
        <mxCell id="ciHioVF_uwQEzItr6yAp-33" style="edgeStyle=orthogonalEdgeStyle;rounded=0;orthogonalLoop=1;jettySize=auto;html=1;entryX=0.532;entryY=0.015;entryDx=0;entryDy=0;entryPerimeter=0;" parent="1" source="ciHioVF_uwQEzItr6yAp-7" target="ciHioVF_uwQEzItr6yAp-31" edge="1">
          <mxGeometry relative="1" as="geometry" />
        </mxCell>
        <mxCell id="ciHioVF_uwQEzItr6yAp-34" value="中奖后立即领取" style="edgeLabel;html=1;align=center;verticalAlign=middle;resizable=0;points=[];" parent="ciHioVF_uwQEzItr6yAp-33" vertex="1" connectable="0">
          <mxGeometry x="-0.2831" y="1" relative="1" as="geometry">
            <mxPoint x="1" as="offset" />
          </mxGeometry>
        </mxCell>
        <mxCell id="v1nNn2pUtEvR3ApRkvbp-1" value="增加抽奖人员白名单" style="rounded=1;whiteSpace=wrap;html=1;" vertex="1" parent="1">
          <mxGeometry x="390" y="30" width="120" height="60" as="geometry" />
        </mxCell>
        <mxCell id="v1nNn2pUtEvR3ApRkvbp-4" value="" style="edgeStyle=orthogonalEdgeStyle;rounded=0;orthogonalLoop=1;jettySize=auto;html=1;" edge="1" parent="1" source="v1nNn2pUtEvR3ApRkvbp-2" target="v1nNn2pUtEvR3ApRkvbp-1">
          <mxGeometry relative="1" as="geometry" />
        </mxCell>
        <mxCell id="v1nNn2pUtEvR3ApRkvbp-5" value="通过网关调用方式" style="edgeLabel;html=1;align=center;verticalAlign=middle;resizable=0;points=[];" vertex="1" connectable="0" parent="v1nNn2pUtEvR3ApRkvbp-4">
          <mxGeometry x="0.0533" y="-2" relative="1" as="geometry">
            <mxPoint as="offset" />
          </mxGeometry>
        </mxCell>
        <mxCell id="v1nNn2pUtEvR3ApRkvbp-2" value="业务系统&lt;div&gt;（如客服后台服务）&lt;/div&gt;" style="rounded=1;whiteSpace=wrap;html=1;" vertex="1" parent="1">
          <mxGeometry x="120" y="30" width="120" height="60" as="geometry" />
        </mxCell>
      </root>
    </mxGraphModel>
  </diagram>
  <diagram id="Bdta5upXrSjGCEwidsce" name="参与活动">
    <mxGraphModel dx="1134" dy="551" grid="1" gridSize="10" guides="1" tooltips="1" connect="1" arrows="1" fold="1" page="1" pageScale="1" pageWidth="827" pageHeight="1169" math="0" shadow="0">
      <root>
        <mxCell id="0" />
        <mxCell id="1" parent="0" />
        <mxCell id="xrp54-41TPekdYXJQ9cj-9" style="edgeStyle=orthogonalEdgeStyle;rounded=0;orthogonalLoop=1;jettySize=auto;html=1;entryX=0;entryY=0.5;entryDx=0;entryDy=0;strokeColor=#A8201A;fontColor=#143642;fillColor=#FAE5C7;" edge="1" parent="1" source="MdU4xFG6ssYn-4UG6qSv-1" target="xrp54-41TPekdYXJQ9cj-7">
          <mxGeometry relative="1" as="geometry" />
        </mxCell>
        <mxCell id="xrp54-41TPekdYXJQ9cj-10" value="参与活动" style="edgeLabel;html=1;align=center;verticalAlign=middle;resizable=0;points=[];strokeColor=#0F8B8D;fontColor=#143642;fillColor=#FAE5C7;" vertex="1" connectable="0" parent="xrp54-41TPekdYXJQ9cj-9">
          <mxGeometry x="0.0762" y="-2" relative="1" as="geometry">
            <mxPoint as="offset" />
          </mxGeometry>
        </mxCell>
        <mxCell id="MdU4xFG6ssYn-4UG6qSv-1" value="Actor" style="shape=umlActor;verticalLabelPosition=bottom;verticalAlign=top;html=1;outlineConnect=0;strokeColor=#0F8B8D;fontColor=#143642;fillColor=#FAE5C7;" vertex="1" parent="1">
          <mxGeometry x="110" y="70" width="30" height="60" as="geometry" />
        </mxCell>
        <mxCell id="xrp54-41TPekdYXJQ9cj-2" value="参与活动流程" style="swimlane;childLayout=stackLayout;resizeParent=1;resizeParentMax=0;startSize=20;horizontal=0;horizontalStack=1;strokeColor=#0F8B8D;fontColor=#143642;fillColor=#FAE5C7;" vertex="1" parent="1">
          <mxGeometry x="170" y="20" width="790" height="1480" as="geometry" />
        </mxCell>
        <mxCell id="xrp54-41TPekdYXJQ9cj-3" value="活动中心" style="swimlane;startSize=20;strokeColor=#0F8B8D;fontColor=#143642;fillColor=#FAE5C7;" vertex="1" parent="xrp54-41TPekdYXJQ9cj-2">
          <mxGeometry x="20" width="500" height="1480" as="geometry" />
        </mxCell>
        <mxCell id="xrp54-41TPekdYXJQ9cj-12" value="" style="edgeStyle=orthogonalEdgeStyle;rounded=0;orthogonalLoop=1;jettySize=auto;html=1;strokeColor=#A8201A;fontColor=#143642;fillColor=#FAE5C7;" edge="1" parent="xrp54-41TPekdYXJQ9cj-3" source="xrp54-41TPekdYXJQ9cj-7" target="xrp54-41TPekdYXJQ9cj-11">
          <mxGeometry relative="1" as="geometry" />
        </mxCell>
        <mxCell id="xrp54-41TPekdYXJQ9cj-7" value="极验滑块校验" style="rounded=0;whiteSpace=wrap;html=1;strokeColor=#0F8B8D;fontColor=#143642;fillColor=#FAE5C7;" vertex="1" parent="xrp54-41TPekdYXJQ9cj-3">
          <mxGeometry x="100" y="55" width="100" height="50" as="geometry" />
        </mxCell>
        <mxCell id="xrp54-41TPekdYXJQ9cj-14" value="" style="edgeStyle=orthogonalEdgeStyle;rounded=0;orthogonalLoop=1;jettySize=auto;html=1;strokeColor=#A8201A;fontColor=#143642;fillColor=#FAE5C7;" edge="1" parent="xrp54-41TPekdYXJQ9cj-3" source="xrp54-41TPekdYXJQ9cj-11" target="xrp54-41TPekdYXJQ9cj-13">
          <mxGeometry relative="1" as="geometry" />
        </mxCell>
        <mxCell id="xrp54-41TPekdYXJQ9cj-11" value="获取分布式锁" style="rounded=0;whiteSpace=wrap;html=1;strokeColor=#0F8B8D;fontColor=#143642;fillColor=#FAE5C7;" vertex="1" parent="xrp54-41TPekdYXJQ9cj-3">
          <mxGeometry x="100" y="150" width="100" height="50" as="geometry" />
        </mxCell>
        <mxCell id="xrp54-41TPekdYXJQ9cj-16" value="" style="edgeStyle=orthogonalEdgeStyle;rounded=0;orthogonalLoop=1;jettySize=auto;html=1;strokeColor=#A8201A;fontColor=#143642;fillColor=#FAE5C7;" edge="1" parent="xrp54-41TPekdYXJQ9cj-3" source="xrp54-41TPekdYXJQ9cj-13" target="xrp54-41TPekdYXJQ9cj-15">
          <mxGeometry relative="1" as="geometry" />
        </mxCell>
        <mxCell id="xrp54-41TPekdYXJQ9cj-13" value="判断活动状态" style="rounded=0;whiteSpace=wrap;html=1;strokeColor=#0F8B8D;fontColor=#143642;fillColor=#FAE5C7;" vertex="1" parent="xrp54-41TPekdYXJQ9cj-3">
          <mxGeometry x="100" y="250" width="100" height="50" as="geometry" />
        </mxCell>
        <mxCell id="xrp54-41TPekdYXJQ9cj-18" value="" style="edgeStyle=orthogonalEdgeStyle;rounded=0;orthogonalLoop=1;jettySize=auto;html=1;strokeColor=#A8201A;fontColor=#143642;fillColor=#FAE5C7;" edge="1" parent="xrp54-41TPekdYXJQ9cj-3" source="xrp54-41TPekdYXJQ9cj-15" target="xrp54-41TPekdYXJQ9cj-17">
          <mxGeometry relative="1" as="geometry" />
        </mxCell>
        <mxCell id="xrp54-41TPekdYXJQ9cj-15" value="活动规则校验&lt;div&gt;（主要是身份，抽奖次数）&lt;/div&gt;" style="rounded=0;whiteSpace=wrap;html=1;strokeColor=#0F8B8D;fontColor=#143642;fillColor=#FAE5C7;" vertex="1" parent="xrp54-41TPekdYXJQ9cj-3">
          <mxGeometry x="100" y="380" width="100" height="50" as="geometry" />
        </mxCell>
        <mxCell id="xrp54-41TPekdYXJQ9cj-17" value="登记信息检查" style="rounded=0;whiteSpace=wrap;html=1;strokeColor=#0F8B8D;fontColor=#143642;fillColor=#FAE5C7;" vertex="1" parent="xrp54-41TPekdYXJQ9cj-3">
          <mxGeometry x="100" y="510" width="100" height="50" as="geometry" />
        </mxCell>
        <mxCell id="xrp54-41TPekdYXJQ9cj-24" value="" style="edgeStyle=orthogonalEdgeStyle;rounded=0;orthogonalLoop=1;jettySize=auto;html=1;strokeColor=#A8201A;fontColor=#143642;fillColor=#FAE5C7;entryX=0.5;entryY=0;entryDx=0;entryDy=0;" edge="1" parent="xrp54-41TPekdYXJQ9cj-3" source="xrp54-41TPekdYXJQ9cj-21" target="xrp54-41TPekdYXJQ9cj-26">
          <mxGeometry relative="1" as="geometry">
            <mxPoint x="150" y="900.0000000000002" as="targetPoint" />
          </mxGeometry>
        </mxCell>
        <mxCell id="xrp54-41TPekdYXJQ9cj-25" value="优惠券活动" style="edgeLabel;html=1;align=center;verticalAlign=middle;resizable=0;points=[];strokeColor=#0F8B8D;fontColor=#143642;fillColor=#FAE5C7;" vertex="1" connectable="0" parent="xrp54-41TPekdYXJQ9cj-24">
          <mxGeometry x="-0.5607" y="1" relative="1" as="geometry">
            <mxPoint x="-1" as="offset" />
          </mxGeometry>
        </mxCell>
        <mxCell id="xrp54-41TPekdYXJQ9cj-21" value="具体活动模板的参与逻辑" style="rounded=0;whiteSpace=wrap;html=1;strokeColor=#0F8B8D;fontColor=#143642;fillColor=#FAE5C7;" vertex="1" parent="xrp54-41TPekdYXJQ9cj-3">
          <mxGeometry x="100" y="740" width="100" height="50" as="geometry" />
        </mxCell>
        <mxCell id="xrp54-41TPekdYXJQ9cj-28" style="edgeStyle=orthogonalEdgeStyle;rounded=0;orthogonalLoop=1;jettySize=auto;html=1;entryX=0.5;entryY=0;entryDx=0;entryDy=0;strokeColor=#A8201A;fontColor=#143642;fillColor=#FAE5C7;" edge="1" parent="xrp54-41TPekdYXJQ9cj-3" source="xrp54-41TPekdYXJQ9cj-26" target="xrp54-41TPekdYXJQ9cj-27">
          <mxGeometry relative="1" as="geometry">
            <Array as="points">
              <mxPoint x="70" y="900" />
            </Array>
          </mxGeometry>
        </mxCell>
        <mxCell id="xrp54-41TPekdYXJQ9cj-29" value="免费" style="edgeLabel;html=1;align=center;verticalAlign=middle;resizable=0;points=[];strokeColor=#0F8B8D;fontColor=#143642;fillColor=#FAE5C7;" vertex="1" connectable="0" parent="xrp54-41TPekdYXJQ9cj-28">
          <mxGeometry x="-0.5983" y="3" relative="1" as="geometry">
            <mxPoint x="-1" as="offset" />
          </mxGeometry>
        </mxCell>
        <mxCell id="xrp54-41TPekdYXJQ9cj-26" value="领取方式" style="rhombus;whiteSpace=wrap;html=1;strokeColor=#0F8B8D;fontColor=#143642;fillColor=#FAE5C7;" vertex="1" parent="xrp54-41TPekdYXJQ9cj-3">
          <mxGeometry x="110" y="860" width="80" height="80" as="geometry" />
        </mxCell>
        <mxCell id="xrp54-41TPekdYXJQ9cj-31" value="" style="edgeStyle=orthogonalEdgeStyle;rounded=0;orthogonalLoop=1;jettySize=auto;html=1;strokeColor=#A8201A;fontColor=#143642;fillColor=#FAE5C7;" edge="1" parent="xrp54-41TPekdYXJQ9cj-3" source="xrp54-41TPekdYXJQ9cj-27" target="xrp54-41TPekdYXJQ9cj-30">
          <mxGeometry relative="1" as="geometry" />
        </mxCell>
        <mxCell id="xrp54-41TPekdYXJQ9cj-27" value="检查库存并扣取" style="rounded=0;whiteSpace=wrap;html=1;strokeColor=#0F8B8D;fontColor=#143642;fillColor=#FAE5C7;" vertex="1" parent="xrp54-41TPekdYXJQ9cj-3">
          <mxGeometry x="10" y="970" width="120" height="60" as="geometry" />
        </mxCell>
        <mxCell id="xrp54-41TPekdYXJQ9cj-33" value="" style="edgeStyle=orthogonalEdgeStyle;rounded=0;orthogonalLoop=1;jettySize=auto;html=1;strokeColor=#A8201A;fontColor=#143642;fillColor=#FAE5C7;" edge="1" parent="xrp54-41TPekdYXJQ9cj-3" source="xrp54-41TPekdYXJQ9cj-30" target="xrp54-41TPekdYXJQ9cj-32">
          <mxGeometry relative="1" as="geometry" />
        </mxCell>
        <mxCell id="xrp54-41TPekdYXJQ9cj-30" value="增加订单记录" style="rounded=0;whiteSpace=wrap;html=1;strokeColor=#0F8B8D;fontColor=#143642;fillColor=#FAE5C7;" vertex="1" parent="xrp54-41TPekdYXJQ9cj-3">
          <mxGeometry x="10" y="1060" width="120" height="60" as="geometry" />
        </mxCell>
        <mxCell id="xrp54-41TPekdYXJQ9cj-35" value="" style="edgeStyle=orthogonalEdgeStyle;rounded=0;orthogonalLoop=1;jettySize=auto;html=1;strokeColor=#A8201A;fontColor=#143642;fillColor=#FAE5C7;" edge="1" parent="xrp54-41TPekdYXJQ9cj-3" source="xrp54-41TPekdYXJQ9cj-32" target="xrp54-41TPekdYXJQ9cj-34">
          <mxGeometry relative="1" as="geometry" />
        </mxCell>
        <mxCell id="xrp54-41TPekdYXJQ9cj-32" value="增加参与记录" style="rounded=0;whiteSpace=wrap;html=1;strokeColor=#0F8B8D;fontColor=#143642;fillColor=#FAE5C7;" vertex="1" parent="xrp54-41TPekdYXJQ9cj-3">
          <mxGeometry x="10" y="1149" width="120" height="60" as="geometry" />
        </mxCell>
        <mxCell id="xrp54-41TPekdYXJQ9cj-37" value="" style="edgeStyle=orthogonalEdgeStyle;rounded=0;orthogonalLoop=1;jettySize=auto;html=1;strokeColor=#A8201A;fontColor=#143642;fillColor=#FAE5C7;" edge="1" parent="xrp54-41TPekdYXJQ9cj-3" source="xrp54-41TPekdYXJQ9cj-34" target="xrp54-41TPekdYXJQ9cj-36">
          <mxGeometry relative="1" as="geometry" />
        </mxCell>
        <mxCell id="xrp54-41TPekdYXJQ9cj-34" value="增加核销记录" style="rounded=0;whiteSpace=wrap;html=1;strokeColor=#0F8B8D;fontColor=#143642;fillColor=#FAE5C7;" vertex="1" parent="xrp54-41TPekdYXJQ9cj-3">
          <mxGeometry x="10" y="1240" width="120" height="60" as="geometry" />
        </mxCell>
        <mxCell id="xrp54-41TPekdYXJQ9cj-36" value="发送短信通知&lt;div&gt;小程序订阅通知&lt;/div&gt;" style="rounded=0;whiteSpace=wrap;html=1;strokeColor=#0F8B8D;fontColor=#143642;fillColor=#FAE5C7;" vertex="1" parent="xrp54-41TPekdYXJQ9cj-3">
          <mxGeometry x="10" y="1350" width="120" height="60" as="geometry" />
        </mxCell>
        <mxCell id="xrp54-41TPekdYXJQ9cj-4" value="交易系统" style="swimlane;startSize=20;strokeColor=#0F8B8D;fontColor=#143642;fillColor=#FAE5C7;" vertex="1" parent="xrp54-41TPekdYXJQ9cj-2">
          <mxGeometry x="520" width="270" height="1480" as="geometry" />
        </mxCell>
        <mxCell id="xrp54-41TPekdYXJQ9cj-22" value="" style="edgeStyle=orthogonalEdgeStyle;rounded=0;orthogonalLoop=1;jettySize=auto;html=1;strokeColor=#A8201A;fontColor=#143642;fillColor=#FAE5C7;" edge="1" parent="1" source="xrp54-41TPekdYXJQ9cj-19" target="xrp54-41TPekdYXJQ9cj-21">
          <mxGeometry relative="1" as="geometry" />
        </mxCell>
        <mxCell id="xrp54-41TPekdYXJQ9cj-19" value="用户授权信息检查" style="rounded=0;whiteSpace=wrap;html=1;strokeColor=#0F8B8D;fontColor=#143642;fillColor=#FAE5C7;" vertex="1" parent="1">
          <mxGeometry x="290" y="660" width="100" height="50" as="geometry" />
        </mxCell>
        <mxCell id="xrp54-41TPekdYXJQ9cj-20" value="" style="edgeStyle=orthogonalEdgeStyle;rounded=0;orthogonalLoop=1;jettySize=auto;html=1;strokeColor=#A8201A;fontColor=#143642;fillColor=#FAE5C7;" edge="1" parent="1" source="xrp54-41TPekdYXJQ9cj-17" target="xrp54-41TPekdYXJQ9cj-19">
          <mxGeometry relative="1" as="geometry" />
        </mxCell>
      </root>
    </mxGraphModel>
  </diagram>
</mxfile>
